<svg width="469.204" height="121.405" xmlns="http://www.w3.org/2000/svg" viewBox="15.398 14.298 469.204 121.405" style="background:0 0" preserveAspectRatio="xMidYMid"><defs><linearGradient id="editing-gradow-gradient" x1="0" x2="1" y1=".5" y2=".5" gradientUnits="objectBoundingBox"><stop offset="0" stop-color="#001cff"/><stop offset="1" stop-color="#0ff"/></linearGradient><filter id="editing-gradow-filter" x="-100%" y="-100%" width="300%" height="300%"><feFlood flood-color="#fff" result="flood"/><feComposite operator="in" in2="SourceAlpha" in="flood" result="shadow"/><feOffset dx="-4" dy="-4" in="SourceGraphic" result="offset-1"/><feOffset dx="4" dy="4" in="shadow" result="offset-2"/><feMerge><feMergeNode in="offset-2"/><feMergeNode in="offset-1"/></feMerge></filter></defs><g filter="url(#editing-gradow-filter)"><path d="M13.41.64Q10.37 0 8.8-.29 7.23-.58 5.41-.58q-1.83 0-3.62.64Q.83-.51.22-1.66q-.6-1.16-.6-2.95 0-3.77 3.84-6.65l16.25-11.72q-4.54-1.28-8.67-1.28t-5.6 2.82Q3.26-24 3.26-28.03q0-2.69 1.96-4.45 1.95-1.76 6.04-1.76 2.31 0 4.39.29 2.08.29 3.93.54l3.46.51q1.66.26 3.36.26t2.98-.7q1.66 1.53 1.66 3.64 0 3.33-4.1 6.79L10.75-10.82q4.99 1.48 7.55 1.48 5.38 0 7.68-2.56 1.8 2.04 1.8 5.6 0 3.55-2.31 5.56-2.3 2.02-6.46 2.02-2.56 0-5.6-.64zM48.7-3.52q-1.98 4.8-8.32 4.8-3.26 0-5.31-2.24-1.73-1.98-1.73-3.97 0-5.18 2.37-15.29l2.37-12.42 12.99-1.28-3.9 20.22q-1.09 4.74-1.09 6.4 0 3.65 2.62 3.78zm-9.47-38.02q0-2.49 2.08-3.84 2.08-1.34 5.09-1.34t4.83 1.34q1.83 1.35 1.83 3.84 0 2.5-2.02 3.78-2.02 1.28-5.02 1.28-3.01 0-4.9-1.28-1.89-1.28-1.89-3.78zm31.43 11.2q3.45-3.58 10.75-3.58 4.03 0 6.24 2.14 2.21 2.15 2.21 6.08 0 3.94-2.21 6.72-2.21 2.79-6.31 3.94.32 1.28.77 2.62l.9 2.56q1.21 3.27 2.17 4.42t2.24 1.54q-.7 2.62-3.26 4.03-2.05 1.15-4.86 1.15-8.26 0-9.35-12.74-.19-1.79-.19-3.58 3.2-.9 5.44-3.9 2.24-3.01 2.24-6.53 0-3.52-2.5-3.52-1.79 0-3.2 1.98-1.4 1.99-2.04 5.38L65.47 0 52.54 1.28 61.5-44.8l12.87-1.28-1.47 7.62q-.96 5.37-2.24 8.12zm48.06 19.52q1.6 1.09 1.6 3.49 0 2.4-1.22 3.94-1.21 1.53-3.2 2.56-4.09 2.11-8.51 2.11-4.41 0-7.01-.96-2.59-.96-4.32-2.75-3.39-3.39-3.39-9.6 0-9.67 5.25-15.55 5.63-6.34 15.42-6.34 6.08 0 9.09 2.56 2.24 1.92 2.24 5.06 0 11.26-19.45 11.26-.26 1.66-.26 3.07 0 2.95 1.31 4.07t3.75 1.12q2.43 0 5.02-1.12 2.59-1.12 3.68-2.92zm-13.06-6.97q4.55 0 7.17-2.82 2.63-2.69 2.63-6.97 0-1.48-.55-2.28-.54-.8-1.63-.8-1.09 0-2.02.42-.92.42-1.88 1.82-2.37 3.2-3.72 10.63zm41.22-.19q2.3-4.1 2.3-8.26 0-2.75-1.98-2.75-1.54 0-3.14 2.62-1.66 2.63-2.17 6.02L138.56 0l-13.25 1.28 6.53-33.92 10.56-1.28-1.15 6.46q3.13-6.46 10.17-6.46 3.72 0 5.73 1.92 2.02 1.92 2.02 5.86 0 3.93-2.59 6.43-2.6 2.49-7.01 2.49-1.92 0-2.69-.76zm17.86-8.77q2.17-3.07 5.47-5.12 3.29-2.05 7.33-2.05 4.03 0 5.95 1.28l12.54-1.28-4.35 24.58Q189.44 3.2 184.7 8.13q-4.54 4.67-13.37 4.67-6.72 0-10.56-2.11-3.84-2.11-3.84-5.63 0-2.63 1.98-4.13 1.99-1.51 5.06-1.51 2.69 0 4.73 1.22 1.22.64 1.8 1.54-1.48 1.28-1.48 3.39 0 2.75 2.56 2.75 4.29 0 6.72-10.11.71-2.75 1.28-5.51-2.88 3.52-9.4 3.52-4.55 0-7.17-2.17-2.63-2.18-2.63-7.3 0-3.2 1.09-6.81 1.09-3.62 3.27-6.69zm8.32 13.69q0 4.36 2.24 4.36 1.53 0 3-1.67 1.16-1.34 1.6-3.33l3.27-16.44q-.32-.07-.64-.2-.64-.25-1.47-.25-3.91 0-6.21 6.4-1.79 4.99-1.79 11.13zm45.5-4.92q2.3-4.1 2.3-8.26 0-2.75-1.98-2.75-1.54 0-3.14 2.62-1.66 2.63-2.17 6.02L210.24 0l-13.25 1.28 6.53-33.92 10.56-1.28-1.15 6.46q3.13-6.46 10.17-6.46 3.72 0 5.73 1.92 2.02 1.92 2.02 5.86 0 3.93-2.59 6.43-2.6 2.49-7.01 2.49-1.92 0-2.69-.76zm16.1 16.06q-1.51-1.66-2.18-4.29-.67-2.62-.67-6.91t1.47-8.19q1.47-3.91 4.16-6.72 5.5-5.89 14.59-5.89 3.27 0 5.63 1.09l10.95-1.09-4.74 24.96q-.19.77-.19 2.18 0 1.4.86 2.3.87.9 2.15 1.02-.64 2.18-2.98 3.46-2.33 1.28-4.96 1.28-2.62 0-4.38-.99-1.76-.99-2.27-2.66-1.03 1.6-3.2 2.63-2.18 1.02-5.09 1.02-2.91 0-5.28-.77t-3.87-2.43zm13.5-25.98q-.74 1.15-1.38 3.1-.64 1.95-1.69 7.17-1.06 5.21-1.06 8.93 0 3.71.58 4.8.57 1.08 1.6 1.08 2.05 0 3.55-1.95t2.08-5.41l3.39-18.75q-1.34-1.15-2.91-1.15t-2.5.51q-.92.51-1.66 1.67zm69.98 29.18q-7.74 0-7.74-6.02 0-2.62 1.12-7.71t1.5-7.13q.9-4.68.9-6.15 0-3.26-2.43-3.26-1.6 0-3.14 2.21-1.53 2.2-2.24 6.62L302.14 0l-12.48 1.28 3.46-17.41q.58-2.88 1.09-6.14.51-3.27.51-3.78 0-2.94-2.18-2.94-1.47 0-3.07 2.17-1.6 2.18-2.49 6.66L283.07 0l-12.61 1.28 6.72-33.92 10.44-1.28-1.09 6.46q1.66-3.45 4.73-4.96 3.08-1.5 7.88-1.5 2.75 0 4.54 1.34 1.79 1.35 2.37 3.52 1.09-2.24 3.87-3.55 2.78-1.31 6.21-1.31 3.42 0 5.12.74 1.69.73 2.72 1.95 1.73 2.24 1.73 6.33 0 4.04-1.73 12.42-.9 4.1-.9 5.6t.87 2.4q.86.9 2.14 1.02-.64 2.18-2.85 3.46-2.21 1.28-5.09 1.28z" fill="url(#editing-gradow-gradient)" transform="translate(86.955 104.76)"/></g><style></style></svg>